<?xml version="1.0" encoding="utf-8"?>
<!-- Generator: Adobe Illustrator 14.0.0, SVG Export Plug-In . SVG Version: 6.00 Build 43363)  -->
<!DOCTYPE svg PUBLIC "-//W3C//DTD SVG 1.1//EN" "http://www.w3.org/Graphics/SVG/1.1/DTD/svg11.dtd">
<svg version="1.1" xmlns="http://www.w3.org/2000/svg" xmlns:xlink="http://www.w3.org/1999/xlink" x="0px" y="0px" width="100px"
	 height="100px" viewBox="0 0 100 100" enable-background="new 0 0 100 100" xml:space="preserve">
<g id="Layer_1">
	<g id="_x31_1_x2C__Illustrator_x2C__Adobe_x2C__Ai">
		<g>
			<path fill="#828282" d="M5,4.988v90.023h90V4.988H5z M91.042,91.047H8.952V8.946h82.09V91.047L91.042,91.047z"/>
			<g>
				<g id="XMLID_1211_">
					<g id="XMLID_1220_">
						<g>
							<path id="XMLID_130_" fill="#828282" d="M36.105,56.227l-3.246,10.776c-0.058,0.374-0.225,0.488-0.539,0.488h-5.434
								c-0.378,0-0.481-0.18-0.378-0.615c2.88-9.469,7.724-25.266,11.136-35.979c0.161-0.615,0.315-1.237,0.431-3.399
								c0-0.257,0.16-0.372,0.314-0.372h7.345c0.269,0,0.327,0.051,0.436,0.302c3.933,12.695,8.25,26.695,12.291,39.513
								c0.115,0.371,0,0.551-0.314,0.551h-5.966c-0.263,0-0.366-0.114-0.474-0.372l-3.414-10.893H36.105L36.105,56.227z
								 M46.863,50.155c-1.071-4.15-3.676-12.509-4.747-16.839h-0.051c-0.802,4.08-2.977,11.085-4.574,16.839H46.863z"/>
						</g>
					</g>
					<g id="XMLID_1212_">
						<g>
							<path id="XMLID_137_" fill="#828282" d="M63.862,29.467c0-2.296,1.527-3.842,3.567-3.842c2.142,0,3.444,1.546,3.444,3.842
								c0,2.355-1.405,3.836-3.503,3.836C65.28,33.303,63.862,31.822,63.862,29.467z M64.234,37.884
								c0-0.366,0.103-0.494,0.365-0.494h5.549c0.321,0,0.424,0.064,0.424,0.494v29.107c0,0.308-0.103,0.487-0.424,0.487h-5.445
								c-0.308,0-0.469-0.115-0.469-0.552V37.884L64.234,37.884z"/>
						</g>
					</g>
				</g>
			</g>
		</g>
	</g>
</g>
<g id="Layer_2" display="none">
</g>
</svg>
