<?xml version="1.0" encoding="utf-8"?>
<!-- Generator: Adobe Illustrator 14.0.0, SVG Export Plug-In . SVG Version: 6.00 Build 43363)  -->
<!DOCTYPE svg PUBLIC "-//W3C//DTD SVG 1.1//EN" "http://www.w3.org/Graphics/SVG/1.1/DTD/svg11.dtd">
<svg version="1.1" xmlns="http://www.w3.org/2000/svg" xmlns:xlink="http://www.w3.org/1999/xlink" x="0px" y="0px" width="100px"
	 height="100px" viewBox="0 0 100 100" enable-background="new 0 0 100 100" xml:space="preserve">
<g id="Layer_1">
	<path fill="#828282" d="M93.658,46.338c-0.072-0.103-0.159-0.205-0.257-0.318L54.009,6.632c-1.062-1.067-2.473-1.636-3.97-1.636
		c-1.493,0-2.903,0.569-3.97,1.636L6.63,46.03c-2.175,2.185-2.175,5.75,0,7.939l39.408,39.403c1.057,1.057,2.462,1.631,3.965,1.631
		c1.498,0,2.903-0.574,3.97-1.642L93.37,53.96C95.438,51.877,95.545,48.543,93.658,46.338z M90.714,51.323L51.326,90.711
		c-0.359,0.344-0.826,0.538-1.323,0.538c-0.498,0-0.97-0.194-1.313-0.533L9.297,51.323c-0.739-0.729-0.739-1.918-0.01-2.646
		l27.759-27.739l6.514,6.514c-0.672,1.118-1.046,2.421-1.046,3.806c0,3.488,2.396,6.432,5.627,7.273V61.51
		c-3.231,0.831-5.627,3.775-5.627,7.273c0,4.129,3.365,7.489,7.504,7.489c4.139,0,7.504-3.36,7.504-7.489
		c0-3.498-2.396-6.442-5.632-7.273V38.531c0.677-0.175,1.303-0.451,1.888-0.79l8.509,8.504c-0.641,1.118-1.016,2.4-1.016,3.771
		c0,4.139,3.375,7.504,7.504,7.504c4.14,0,7.505-3.365,7.505-7.504c0-4.129-3.365-7.504-7.505-7.504
		c-1.405,0-2.724,0.39-3.852,1.071L56.45,35.11c0.683-1.124,1.072-2.447,1.072-3.853c0-4.139-3.365-7.509-7.504-7.509
		c-1.391,0-2.688,0.38-3.816,1.046l-6.499-6.504l9.007-9.007c0.359-0.344,0.831-0.533,1.329-0.533c0.497,0,0.969,0.189,1.318,0.533
		l39.156,39.146c0.062,0.092,0.123,0.174,0.2,0.246C91.442,49.405,91.442,50.595,90.714,51.323z M47.366,28.601
		c0.01,0,0.01-0.01,0.01-0.01c0.683-0.667,1.616-1.087,2.642-1.087c2.072,0,3.749,1.682,3.749,3.754s-1.677,3.755-3.749,3.755
		c-2.067,0-3.755-1.683-3.755-3.755c0-1.031,0.42-1.959,1.098-2.636C47.361,28.611,47.361,28.611,47.366,28.601z M50.019,65.023
		c2.072,0,3.749,1.683,3.749,3.76c0,2.072-1.677,3.744-3.749,3.744c-2.067,0-3.755-1.672-3.755-3.744
		C46.264,66.706,47.951,65.023,50.019,65.023z M68.775,46.266c2.072,0,3.755,1.693,3.755,3.75c0,2.067-1.683,3.755-3.755,3.755
		c-2.057,0-3.744-1.688-3.744-3.755C65.031,47.959,66.719,46.266,68.775,46.266z"/>
</g>
<g id="Layer_2" display="none">
</g>
</svg>
