<?xml version="1.0" encoding="utf-8"?>
<!-- Generator: Adobe Illustrator 14.0.0, SVG Export Plug-In . SVG Version: 6.00 Build 43363)  -->
<!DOCTYPE svg PUBLIC "-//W3C//DTD SVG 1.1//EN" "http://www.w3.org/Graphics/SVG/1.1/DTD/svg11.dtd">
<svg version="1.1" xmlns="http://www.w3.org/2000/svg" xmlns:xlink="http://www.w3.org/1999/xlink" x="0px" y="0px" width="100px"
	 height="100px" viewBox="0 0 100 100" enable-background="new 0 0 100 100" xml:space="preserve">
<g id="Layer_1">
	<g id="_x34__x2C__InDesign_x2C__Adobe">
		<g>
			<path fill="#828282" d="M5,4.997v90.006h90V4.997H5z M91.042,91.052H8.952V8.96h82.09V91.052L91.042,91.052z"/>
			<g>
				<g>
					<g>
						<rect x="30.239" y="29.1" fill="#828282" width="6.796" height="41.241"/>
						<path fill="#828282" d="M62.792,29.1v10.545c0,0-1.214,0-2.023,0c-6.909,0-15.271,4.464-15.271,15.843
							c0,8.796,4.457,15.413,13.968,15.413c6.986,0,10.277-2.416,10.277-2.416V29.1H62.792z M62.792,64.842
							c0,0-0.81,0.346-2.695,0.346c-1.893,0-7.689-0.821-7.689-10.01s6.665-9.927,8.267-9.927c1.601,0,2.118,0.452,2.118,0.452
							V64.842z"/>
					</g>
				</g>
			</g>
		</g>
	</g>
</g>
<g id="Layer_2" display="none">
</g>
</svg>
