<?xml version="1.0" encoding="utf-8"?>
<!-- Generator: Adobe Illustrator 14.0.0, SVG Export Plug-In . SVG Version: 6.00 Build 43363)  -->
<!DOCTYPE svg PUBLIC "-//W3C//DTD SVG 1.1//EN" "http://www.w3.org/Graphics/SVG/1.1/DTD/svg11.dtd">
<svg version="1.1" xmlns="http://www.w3.org/2000/svg" xmlns:xlink="http://www.w3.org/1999/xlink" x="0px" y="0px" width="100px"
	 height="100px" viewBox="0 0 100 100" enable-background="new 0 0 100 100" xml:space="preserve">
<g id="Layer_1">
	<g id="Layer_6">
		<g>
			<path fill="#828282" d="M10.715,27.018C2.748,38.457,3.74,53.366,9.821,65.537c1.187,2.342,2.528,4.618,4.073,6.74
				c0.024,0.016,0.032,0.032,0.032,0.04c0.968,1.618,2.423,3.131,3.675,4.529c0.024,0.032,0.049,0.049,0.073,0.073
				c1.285,1.422,2.675,2.771,4.114,4.04l0.016,0.017c5.155,4.292,10.813,7.861,17.187,10.064c1.342,0.391,2.724,0.992,4.106,1.244
				c38.528,7.032,49.724-23.146,49.724-23.146C83.423,81.383,66.74,84.618,50.919,81.025c-4.602-1.073-9.139-3.09-13.204-5.479
				c-6.203-3.74-11.561-8.545-15.87-14.366c-8.781-11.975-11.927-28.479-4.919-42.057"/>
			<path fill="#828282" d="M35.455,17.367c-5.764,8.292-5.463,19.382-0.959,28.163c0.756,1.463,1.602,2.902,2.553,4.26
				c0.854,1.236,1.805,2.699,2.951,3.708c0.472,0.512,2.374,2.617,3.016,2.942c0.008,0.017,0.008,0.017,0.008,0.017
				c0.016,0.008,3.577,2.821,3.553,2.765c0.731,0.495,1.528,1,2.284,1.446c0.675,0.505,1.586,0.879,2.342,1.269
				c0.562,0.244,1.114,0.504,1.667,0.772c1.65,0.756,3.707,1.626,5.504,1.91C88.13,69.546,95,46.643,95,46.643
				c-6.195,8.903-18.187,13.17-30.983,9.845c-5.024-1.301-9.732-3.69-13.806-6.893c-5.601-4.423-10.048-10.456-12.154-17.317
				c-2.211-7.106-1.732-15.073,2.089-21.561"/>
			<path fill="#828282" d="M56.252,10.164c-3.398,4.992-3.731,11.203-1.374,16.731c2.488,5.854,7.577,10.456,13.528,12.626
				c0.35,0.13,0.699,0.252,1.058,0.365c0.35,0.098,0.699,0.236,1.064,0.301c16.431,3.179,20.878-8.422,22.065-10.138
				c-3.902,5.626-10.455,6.976-18.513,5.025c-0.626-0.163-1.325-0.391-1.942-0.602c-0.789-0.276-1.562-0.602-2.317-0.96
				c-1.423-0.699-2.78-1.528-4.049-2.488C58.569,25.57,54.098,15.14,58.797,6.652"/>
		</g>
	</g>
</g>
<g id="Layer_2" display="none">
</g>
</svg>
