<?xml version="1.0" encoding="utf-8"?>
<!-- Generator: Adobe Illustrator 14.0.0, SVG Export Plug-In . SVG Version: 6.00 Build 43363)  -->
<!DOCTYPE svg PUBLIC "-//W3C//DTD SVG 1.1//EN" "http://www.w3.org/Graphics/SVG/1.1/DTD/svg11.dtd">
<svg version="1.1" xmlns="http://www.w3.org/2000/svg" xmlns:xlink="http://www.w3.org/1999/xlink" x="0px" y="0px" width="100px"
	 height="100px" viewBox="0 0 100 100" enable-background="new 0 0 100 100" xml:space="preserve">
<g id="Layer_1">
	<g id="_x32_3_x2C__Photoshop_x2C__Adobe">
		<g>
			<path fill="#828282" d="M5,5.009v89.982h90V5.009H5z M91.041,91.043H8.96V8.969h82.081V91.043L91.041,91.043z"/>
			<g>
				<g>
					<g id="XMLID_1346_">
						<g>
							<path id="XMLID_108_" fill="#828282" d="M26.867,26.742c0-0.315,0.058-0.431,0.32-0.431c2.026-0.07,6.021-0.128,10.068-0.128
								c10.441,0,14.418,6.079,14.471,13.265c0,9.842-7.337,13.569-15.17,13.569c-1.485,0-2.929,0-3.302,0v14.069
								c0,0.373-0.105,0.501-0.367,0.501h-5.649c-0.268,0-0.373-0.128-0.373-0.443V26.742L26.867,26.742z M33.255,47.019
								c0.431,0.059,1.229,0.116,3.465,0.116c4.205,0,8.264-1.2,8.264-7.384c0-4.962-2.731-7.5-7.728-7.5
								c-2.073,0-3.57,0.058-4,0.128V47.019z"/>
						</g>
					</g>
					<g id="XMLID_1340_">
						<g>
							<path id="XMLID_66_" fill="#828282" d="M65.021,42.383c-2.562,0-3.244,1.607-3.244,2.784c0,1.479,0.682,2.282,4.602,4.146
								c5.392,2.608,7.686,4.893,7.686,9.353c0,6.196-4.023,9.714-9.783,9.714c-2.766,0-6.271-0.269-8.461-1.876
								c-0.215-0.128-0.326-0.314-0.326-0.628v-5.684c0-0.315,0.216-0.432,0.373-0.315c2.719,2.05,5.759,2.621,8.479,2.621
								c2.399,0,3.238-1.596,3.238-2.958c0-1.607-0.583-2.539-4.345-4.333c-5.393-2.608-7.634-4.845-7.634-9.352
								c0-5.02,3.756-9.166,9.934-9.166c3.191,0,5.445,0.093,6.906,1.071c0.269,0.256,0.32,0.442,0.32,0.815v5.067
								c0,0.373-0.209,0.559-0.471,0.373C70.402,42.779,67.747,42.383,65.021,42.383z"/>
						</g>
					</g>
				</g>
			</g>
		</g>
	</g>
</g>
<g id="Layer_2" display="none">
</g>
</svg>
