<?xml version="1.0" encoding="utf-8"?>
<!-- Generator: Adobe Illustrator 14.0.0, SVG Export Plug-In . SVG Version: 6.00 Build 43363)  -->
<!DOCTYPE svg PUBLIC "-//W3C//DTD SVG 1.1//EN" "http://www.w3.org/Graphics/SVG/1.1/DTD/svg11.dtd">
<svg version="1.1" xmlns="http://www.w3.org/2000/svg" xmlns:xlink="http://www.w3.org/1999/xlink" x="0px" y="0px" width="100px"
	 height="100px" viewBox="0 0 100 100" enable-background="new 0 0 100 100" xml:space="preserve">
<g id="Layer_1">
	<g>
		<path fill-rule="evenodd" clip-rule="evenodd" fill="#828282" d="M26.782,41.029v8.438c2.047,0.157,4.055,0.55,5.312-1.583
			c0.935-1.603,0.856-4.553-0.236-5.775C30.438,40.506,28.614,40.741,26.782,41.029z"/>
		<path fill-rule="evenodd" clip-rule="evenodd" fill="#828282" d="M92.043,16.506H56.466V7.218L5,16.146v67.694l51.466,8.941
			V81.506h35.577c1.643,0,2.957-1.328,2.957-2.957V19.463C95,17.834,93.686,16.506,92.043,16.506z M38.406,48.027
			c-0.779,3.35-2.924,5.691-6.333,6.528c-1.701,0.426-3.506,0.34-5.436,0.497v9.537h-5.154V35.809c3.977,0,7.941-0.104,11.872,0.065
			c1.034,0.06,2.244,0.831,3.002,1.623C39.282,40.506,39.282,44.28,38.406,48.027z M92.037,78.549H56.466v-7.431H84.2v-3.435H56.466
			v-5.841H84.2v-3.428H56.466v-9.589c2.23,2.616,5.561,4.284,9.269,4.284c6.738,0,12.187-5.462,12.187-12.18H65.734V28.731
			c-3.708,0-7.038,1.675-9.269,4.291v-13.56h35.577L92.037,78.549z"/>
		<path fill-rule="evenodd" clip-rule="evenodd" fill="#828282" d="M67.625,27.018v12.18h12.187
			C79.812,32.467,74.356,27.018,67.625,27.018z"/>
	</g>
</g>
<g id="Layer_2" display="none">
</g>
</svg>
