<?xml version="1.0" encoding="utf-8"?>
<!-- Generator: Adobe Illustrator 14.0.0, SVG Export Plug-In . SVG Version: 6.00 Build 43363)  -->
<!DOCTYPE svg PUBLIC "-//W3C//DTD SVG 1.1//EN" "http://www.w3.org/Graphics/SVG/1.1/DTD/svg11.dtd">
<svg version="1.1" xmlns="http://www.w3.org/2000/svg" xmlns:xlink="http://www.w3.org/1999/xlink" x="0px" y="0px" width="100px"
	 height="100px" viewBox="0 0 100 100" enable-background="new 0 0 100 100" xml:space="preserve">
<g id="Layer_1">
	<g transform="matrix(1.125 0 0 1.125 145 68.3755)">
		<g>
			<path fill="#828282" d="M-124.444-55.335v78.002h80v-78.002H-124.444z M-121.109-52h73.33v71.332h-73.33V-52z"/>
			<path fill="#828282" d="M-103.455-37.071c0-0.22,0.052-0.383,0.331-0.383c2.141-0.116,5.281-0.168,8.577-0.168
				c9.246,0,13.256,5.061,13.256,11.549c0,8.473-6.125,12.1-13.658,12.1c-1.272,0-1.713-0.051-2.589-0.051v12.807
				c0,0.28-0.111,0.383-0.383,0.383h-5.152c-0.273,0-0.383-0.103-0.383-0.383V-37.071z M-97.537-19.364
				c0.772,0.058,1.375,0.058,2.699,0.058c3.899,0,7.559-1.375,7.559-6.656c0-4.237-2.609-6.378-7.066-6.378
				c-1.317,0-2.589,0.052-3.192,0.11V-19.364z M-76.204-22.388c0-0.383,0-1.375-0.162-3.244c0-0.273,0.032-0.331,0.253-0.441
				c2.037-0.825,6.799-2.31,12.192-2.31c0.273,0,0.383,0.051,0.383,0.331v4.84c0,0.273-0.084,0.331-0.364,0.331
				c-2.089-0.11-5.145,0.162-6.3,0.661v21.003c0,0.28-0.11,0.383-0.389,0.383h-5.229c-0.273,0-0.383-0.103-0.383-0.383V-22.388z"/>
		</g>
	</g>
</g>
<g id="Layer_2" display="none">
</g>
</svg>
