<?xml version="1.0" encoding="utf-8"?>
<!-- Generator: Adobe Illustrator 14.0.0, SVG Export Plug-In . SVG Version: 6.00 Build 43363)  -->
<!DOCTYPE svg PUBLIC "-//W3C//DTD SVG 1.1//EN" "http://www.w3.org/Graphics/SVG/1.1/DTD/svg11.dtd">
<svg version="1.1" xmlns="http://www.w3.org/2000/svg" xmlns:xlink="http://www.w3.org/1999/xlink" x="0px" y="0px" width="100px"
	 height="100px" viewBox="0 0 100 100" enable-background="new 0 0 100 100" xml:space="preserve">
<g id="Layer_1">
	<g>
		<path fill="#828282" d="M50.009,41.87c-4.437,0-8.034,3.598-8.034,8.046c0,4.437,3.598,8.033,8.034,8.033
			c4.459,0,8.057-3.597,8.057-8.033C58.065,45.468,54.468,41.87,50.009,41.87z"/>
		<path fill="#828282" d="M90.368,41.904c-2.781-2.31-6.706-4.396-11.367-5.988c-0.925-0.321-1.982-0.568-2.971-0.855
			c0.166-0.673,0.402-1.396,0.54-2.046C78.8,22.188,77.22,13.717,72.433,10.97c-2.345-1.345-5.546-1.345-9.252,0
			c-3.396,1.259-7.161,3.626-10.873,6.868c-0.747,0.644-1.488,1.442-2.235,2.161c-0.5-0.483-1.006-1.046-1.5-1.494
			c-8.27-7.344-16.407-10.195-21.177-7.425c-2.35,1.356-3.942,4.132-4.609,8.022c-0.621,3.574-0.431,8.017,0.517,12.85
			c0.19,0.982,0.512,2.034,0.765,3.046c-1.161,0.333-2.379,0.62-3.454,1C10.821,39.388,5,44.594,5,49.916
			c0,2.77,1.632,5.643,4.707,8.264c2.891,2.482,6.988,4.654,11.752,6.304c0.788,0.271,1.713,0.466,2.558,0.707
			c-0.27,1.086-0.609,2.207-0.805,3.253c-1.942,10.183-0.328,17.838,4.264,20.498c1.212,0.707,2.661,1.052,4.287,1.052
			c1.575,0,3.339-0.333,5.207-1.005c3.586-1.282,7.511-3.707,11.333-7.04c0.621-0.54,1.253-1.235,1.873-1.839
			c0.816,0.781,1.633,1.644,2.448,2.345c5.759,4.953,11.293,7.585,15.638,7.585c1.586,0,3.011-0.355,4.212-1.051
			c2.408-1.396,4.068-4.235,4.811-8.224c0.684-3.747,0.528-8.356-0.443-13.339c-0.154-0.775-0.431-1.632-0.632-2.437
			c0.569-0.167,1.219-0.299,1.759-0.477C88.478,61.03,95,55.444,95,49.916C95,47.197,93.396,44.428,90.368,41.904z M54.818,20.756
			c3.362-2.931,6.724-5.062,9.684-6.16c2.563-0.937,4.689-1.035,6.011-0.282c2.575,1.488,4.38,7.729,2.282,17.947
			c-0.115,0.563-0.328,1.189-0.466,1.77c-3.724-0.861-7.799-1.448-12.011-1.851c-2.46-3.494-4.982-6.723-7.517-9.47
			C53.474,22.067,54.146,21.343,54.818,20.756z M62.577,57.248c-1.408,2.448-2.845,4.747-4.299,6.925
			c-2.684,0.196-5.442,0.316-8.27,0.316c-2.816,0-5.523-0.092-8.126-0.259c-1.54-2.241-3.029-4.557-4.419-6.959
			c-1.391-2.414-2.655-4.845-3.816-7.264c1.161-2.431,2.425-4.862,3.799-7.241h0.006c1.391-2.414,2.868-4.724,4.39-6.953
			c2.684-0.207,5.419-0.322,8.167-0.322c2.781,0,5.517,0.121,8.194,0.322c1.494,2.206,2.954,4.505,4.356,6.925
			c1.419,2.453,2.701,4.855,3.867,7.212C65.255,52.363,63.984,54.806,62.577,57.248z M68.456,54.381
			c1.195,2.729,2.27,5.396,3.068,7.901c-2.614,0.598-5.448,1.058-8.431,1.414c0.942-1.482,1.885-2.942,2.805-4.54
			C66.818,57.564,67.628,55.973,68.456,54.381z M50.181,74.695c-1.821-1.965-3.626-4.178-5.401-6.517
			c1.729,0.069,3.425,0.161,5.229,0.161c1.845,0,3.632-0.092,5.425-0.173C53.687,70.541,51.928,72.771,50.181,74.695z M37.004,63.76
			c-2.942-0.328-5.758-0.735-8.31-1.293c0.799-2.569,1.816-5.241,2.959-7.942c0.805,1.558,1.592,3.12,2.488,4.666
			C35.056,60.771,36.033,62.26,37.004,63.76z M34.142,40.824c-0.896,1.552-1.678,3.12-2.488,4.689
			c-1.115-2.649-2.115-5.264-2.896-7.793c2.574-0.574,5.333-1.017,8.183-1.373C35.992,37.824,35.033,39.278,34.142,40.824z
			 M55.342,31.836c-1.771-0.081-3.534-0.184-5.339-0.184c-1.781,0-3.517,0.104-5.264,0.184c1.747-2.299,3.523-4.482,5.328-6.431
			C51.836,27.325,53.595,29.509,55.342,31.836z M65.875,40.801c-0.891-1.546-1.839-2.993-2.775-4.459
			c2.873,0.362,5.655,0.805,8.247,1.402c-0.776,2.488-1.782,5.103-2.926,7.781C67.6,43.962,66.801,42.398,65.875,40.801z
			 M27.085,31.216c-0.879-4.368-1.035-8.35-0.518-11.448c0.472-2.701,1.448-4.603,2.764-5.356c2.586-1.494,8.896,0.058,16.689,6.977
			c0.437,0.385,0.879,0.885,1.316,1.305c-2.604,2.798-5.144,6.028-7.591,9.482c-4.207,0.385-8.241,0.982-11.959,1.821
			C27.556,33.072,27.257,32.112,27.085,31.216z M22.717,60.829c-9.522-3.241-13.861-7.942-13.861-10.913
			c0-2.874,4.04-7.167,13.04-10.299c0.965-0.333,2.086-0.598,3.132-0.896c1.121,3.644,2.649,7.46,4.414,11.298
			c-1.793,3.896-3.327,7.753-4.459,11.442C24.24,61.248,23.413,61.064,22.717,60.829z M31.763,86.144
			c-0.971,0-1.77-0.185-2.379-0.541c-2.465-1.425-4.178-7.062-2.408-16.436c0.178-0.942,0.494-1.988,0.741-2.977
			c3.638,0.805,7.724,1.345,12.068,1.701c2.471,3.482,5.04,6.724,7.666,9.539c-0.557,0.535-1.121,1.161-1.672,1.644
			C39.969,84.132,34.963,86.144,31.763,86.144z M73.088,68.19c1.942,9.873,0.058,15.976-2.518,17.459
			c-2.482,1.447-8.212,0.103-15.447-6.115c-0.729-0.632-1.477-1.425-2.218-2.138c2.505-2.741,5.005-5.994,7.477-9.568
			c4.327-0.385,8.441-0.982,12.131-1.833C72.691,66.719,72.949,67.495,73.088,68.19z M76.771,60.857
			c-0.478,0.155-1.04,0.265-1.54,0.414c-1.127-3.558-2.713-7.385-4.592-11.345c1.781-3.85,3.31-7.62,4.413-11.171
			c0.896,0.264,1.868,0.482,2.713,0.77c4.212,1.466,7.735,3.311,10.154,5.315c2.104,1.753,3.247,3.54,3.247,5.075
			C91.167,52.887,86.655,57.576,76.771,60.857z"/>
	</g>
</g>
<g id="Layer_2" display="none">
</g>
</svg>
