<?xml version="1.0" encoding="utf-8"?>
<!-- Generator: Adobe Illustrator 14.0.0, SVG Export Plug-In . SVG Version: 6.00 Build 43363)  -->
<!DOCTYPE svg PUBLIC "-//W3C//DTD SVG 1.1//EN" "http://www.w3.org/Graphics/SVG/1.1/DTD/svg11.dtd">
<svg version="1.1" xmlns="http://www.w3.org/2000/svg" xmlns:xlink="http://www.w3.org/1999/xlink" x="0px" y="0px" width="100px"
	 height="100px" viewBox="0 0 100 100" enable-background="new 0 0 100 100" xml:space="preserve">
<g id="Layer_1">
	<path fill="#828282" d="M87.21,15.703l0.367,0.333C84.882,5.434,67.338,1.956,50.72,7.863c-9.861,3.512-20.566,9.031-28.263,16.217
		c-9.146,8.547-10.603,15.993-10.004,19.109c2.124,10.97,17.17,18.157,23.356,23.493v0.02c-1.823,0.891-15.176,7.588-18.306,14.522
		c-3.348,7.289,0.531,12.516,3.056,13.176c7.819,2.171,15.863-1.783,20.178-8.18c4.186-6.262,3.818-14.306,2.008-18.26
		c2.47-0.667,5.37-0.96,9.092-0.504c10.426,1.186,12.515,7.738,12.059,10.42c-0.449,2.674-2.593,4.238-3.349,4.688
		c-0.734,0.442-0.966,0.592-0.898,0.898c0.082,0.448,0.456,0.448,1.042,0.366c0.823-0.148,5.45-2.231,5.669-7.294
		c0.225-6.411-5.887-13.557-16.755-13.408c-4.471,0.082-7.303,0.45-9.31,1.268c-0.149-0.226-0.306-0.375-0.517-0.525
		c-6.71-7.22-19.144-12.283-18.62-21.892c0.143-3.498,1.416-12.726,23.833-23.9c18.388-9.16,33.061-6.615,35.6-1.034
		c3.641,7.949-7.826,22.784-26.963,24.935c-7.303,0.824-11.093-2.001-12.073-3.049c-1.034-1.116-1.177-1.197-1.559-0.966
		c-0.592,0.299-0.218,1.266,0,1.865c0.599,1.483,2.899,4.096,6.935,5.43c3.499,1.123,12.066,1.797,22.335-2.232
		C80.806,38.562,89.823,26.122,87.21,15.703z M37.83,70.247l0.544-0.286c0.864,3.185,0.762,6.18-0.123,8.889l-0.327,0.891
		c-0.116,0.308-0.259,0.594-0.388,0.878c-0.694,1.431-1.613,2.777-2.756,4.023c-3.457,3.763-8.289,5.191-10.378,3.993
		c-2.225-1.3-1.116-6.627,2.906-10.874c4.328-4.56,10.521-7.485,10.521-7.485V70.247z"/>
</g>
<g id="Layer_2" display="none">
</g>
</svg>
