<?xml version="1.0" encoding="utf-8"?>
<!-- Generator: Adobe Illustrator 14.0.0, SVG Export Plug-In . SVG Version: 6.00 Build 43363)  -->
<!DOCTYPE svg PUBLIC "-//W3C//DTD SVG 1.1//EN" "http://www.w3.org/Graphics/SVG/1.1/DTD/svg11.dtd">
<svg version="1.1" xmlns="http://www.w3.org/2000/svg" xmlns:xlink="http://www.w3.org/1999/xlink" x="0px" y="0px" width="100px"
	 height="100px" viewBox="0 0 100 100" enable-background="new 0 0 100 100" xml:space="preserve">
<g id="Layer_1">
	<path fill="#828282" d="M70.324,84.998l3.204-9.307l9.144-26.443c2.316-5.765,3.068-10.377,3.068-14.482
		c0-1.47-0.088-2.886-0.257-4.172c3.156,5.785,4.965,12.369,4.965,19.426c0,1.871-0.122,3.712-0.359,5.513
		C88.369,68.119,80.837,78.875,70.324,84.998z M55.571,31.041c2.438-0.108,4.612-0.373,4.612-0.373
		c2.195-0.237,1.931-3.468-0.257-3.339c0,0-6.557,0.528-10.771,0.528c-3.962,0-10.668-0.528-10.668-0.528
		c-2.167-0.129-2.432,3.217-0.23,3.339c0,0,2.025,0.264,4.24,0.373l6.313,17.266l-8.874,26.566L25.199,31.041
		c2.465-0.108,4.64-0.373,4.64-0.373c2.161-0.237,1.924-3.468-0.264-3.339c0,0-6.536,0.528-10.77,0.528
		c-0.772,0-1.66-0.027-2.608-0.054c7.214-10.959,19.67-18.208,33.78-18.208c10.539,0,20.124,4.023,27.317,10.594
		c-0.169,0-0.353-0.013-0.535-0.013c-3.996,0-6.78,3.455-6.78,7.18c0,3.339,1.91,6.144,3.936,9.477
		c1.564,2.688,3.373,6.157,3.373,11.156c0,3.468-1.036,7.824-3.089,13.044l-4.051,13.494L55.571,31.041z M55.232,90.146
		c-1.721,0.203-3.481,0.326-5.256,0.326c-3.97,0-7.796-0.576-11.4-1.654l4.416-12.896h0.014l7.667-22.379l12.45,34.078
		c0.095,0.182,0.217,0.357,0.291,0.535C60.794,89.09,58.051,89.754,55.232,90.146z M9.552,50.02c0-5.852,1.26-11.434,3.509-16.459
		l19.291,52.867C18.852,79.865,9.552,66.012,9.552,50.02z M49.977,5.003C25.199,5.003,5,25.202,5,50.02
		c0,24.804,20.199,44.976,44.977,44.976c1.984,0,3.922-0.107,5.818-0.426c20.104-2.568,36.062-18.424,38.758-38.439
		C94.851,54.133,95,52.094,95,50.02C95,25.202,74.788,5.003,49.977,5.003z"/>
</g>
<g id="Layer_2" display="none">
</g>
</svg>
